<?xml version="1.0" encoding="utf-8"?>
<!-- Generator: Adobe Illustrator 21.0.2, SVG Export Plug-In . SVG Version: 6.00 Build 0)  -->
<svg version="1.1" id="_x34_" xmlns="http://www.w3.org/2000/svg" xmlns:xlink="http://www.w3.org/1999/xlink" x="0px" y="0px"
	 viewBox="0 0 147 162.9" style="enable-background:new 0 0 147 162.9;" xml:space="preserve">
<style type="text/css">
	.st0{fill:#34668B;}
	.st1{fill:#F5AE2B;}
	.st2{fill:none;}
	.st3{fill:#29AAE1;}
	.st4{fill:#136A8E;}
	.st5{fill:#F16522;}
	.st6{fill:#6ACAD3;}
</style>
<g>
	<path class="st6" d="M33.3,127.3c-0.7-0.5-1.6-0.7-2.7-0.7c-3,0-4.5,1.9-4.5,5.8v4.1h6.3v2.8h-6.3v22.6H23v-22.6h-4.4v-2.8H23v-4.3
		c0-1.3,0.2-2.4,0.5-3.5c0.3-1,0.8-1.9,1.4-2.6s1.4-1.3,2.4-1.7c0.9-0.4,2-0.6,3.3-0.6c1.2,0,2.1,0.2,2.8,0.5V127.3z"/>
	<path class="st6" d="M46.8,162.4c-1.9,0-3.6-0.3-5.1-0.9c-1.5-0.6-2.8-1.5-3.8-2.7c-1.1-1.1-1.9-2.5-2.4-4.1
		c-0.6-1.6-0.8-3.4-0.8-5.3c0-2.1,0.3-4,0.9-5.7c0.6-1.7,1.4-3.1,2.5-4.2c1.1-1.2,2.4-2,4-2.7c1.6-0.6,3.3-0.9,5.2-0.9
		c1.8,0,3.5,0.3,5,0.9c1.5,0.6,2.7,1.5,3.7,2.6s1.8,2.5,2.4,4.2c0.5,1.6,0.8,3.5,0.8,5.6c0,2-0.3,3.8-0.9,5.4
		c-0.6,1.6-1.4,3-2.4,4.2c-1.1,1.2-2.3,2.1-3.9,2.7C50.4,162.1,48.7,162.4,46.8,162.4z M47.1,138.6c-1.4,0-2.6,0.2-3.8,0.7
		c-1.1,0.5-2.1,1.2-2.9,2.1c-0.8,0.9-1.4,2-1.8,3.4c-0.4,1.3-0.6,2.8-0.6,4.5c0,1.6,0.2,3,0.6,4.3c0.4,1.3,1,2.4,1.8,3.3
		c0.8,0.9,1.7,1.6,2.9,2.1c1.1,0.5,2.4,0.7,3.8,0.7c1.4,0,2.7-0.2,3.8-0.7s2-1.2,2.8-2.1c0.8-0.9,1.3-2,1.7-3.3
		c0.4-1.3,0.6-2.8,0.6-4.5c0-3.4-0.8-6-2.3-7.8S49.9,138.6,47.1,138.6z"/>
	<path class="st6" d="M78.1,139.7c-0.7-0.5-1.7-0.8-2.9-0.8c-0.8,0-1.6,0.2-2.2,0.5c-0.6,0.3-1.2,0.8-1.7,1.3
		c-0.5,0.5-0.9,1.2-1.2,1.9c-0.3,0.7-0.6,1.5-0.8,2.2c-0.2,0.8-0.4,1.6-0.4,2.4c-0.1,0.8-0.1,1.5-0.1,2.3v12.4h-3.1v-25.3h3.1v5.4
		h0.1c0.3-0.9,0.7-1.8,1.1-2.5c0.5-0.7,1-1.4,1.6-1.9c0.6-0.5,1.2-0.9,1.9-1.2c0.7-0.3,1.4-0.4,2.2-0.4c0.5,0,1,0,1.4,0.1
		c0.4,0.1,0.8,0.2,1.1,0.3V139.7z"/>
	<path class="st1" d="M79.9,162.3c-0.7,0-1.2-0.2-1.7-0.7c-0.5-0.5-0.7-1-0.7-1.7c0-0.7,0.2-1.2,0.7-1.7c0.5-0.5,1-0.7,1.7-0.7
		c0.3,0,0.6,0.1,0.9,0.2c0.3,0.1,0.5,0.3,0.8,0.5s0.4,0.5,0.5,0.8c0.1,0.3,0.2,0.6,0.2,1c0,0.3-0.1,0.6-0.2,0.9
		c-0.1,0.3-0.3,0.5-0.5,0.8s-0.5,0.4-0.8,0.5C80.6,162.2,80.3,162.3,79.9,162.3z"/>
	<path class="st6" d="M112.9,161.8h-7.8v-3.9H105c-1.9,3-4.5,4.5-7.7,4.5c-5.9,0-8.8-3.6-8.8-10.7v-15.3h7.8v14.6
		c0,3.6,1.4,5.4,4.3,5.4c1.4,0,2.5-0.5,3.4-1.5c0.8-1,1.3-2.3,1.3-4v-14.5h7.8V161.8z"/>
	<path class="st6" d="M117.8,161.1v-6.3c1.3,0.8,2.6,1.4,3.8,1.7s2.5,0.6,3.6,0.6c1.4,0,2.5-0.2,3.3-0.6s1.2-1,1.2-1.7
		c0-0.5-0.2-0.9-0.5-1.2c-0.4-0.3-0.8-0.6-1.4-0.9c-0.6-0.2-1.2-0.5-1.9-0.7c-0.7-0.2-1.3-0.4-2-0.7c-1-0.4-1.9-0.8-2.7-1.2
		c-0.8-0.4-1.4-0.9-1.9-1.5c-0.5-0.6-0.9-1.2-1.2-2c-0.3-0.8-0.4-1.7-0.4-2.7c0-1.4,0.3-2.6,0.9-3.7c0.6-1,1.4-1.9,2.5-2.5
		c1-0.7,2.2-1.1,3.5-1.4c1.3-0.3,2.7-0.5,4.1-0.5c1.1,0,2.3,0.1,3.4,0.3c1.2,0.2,2.3,0.4,3.4,0.8v6c-1-0.6-2-1-3.2-1.3
		c-1.1-0.3-2.2-0.4-3.3-0.4c-0.5,0-1,0-1.4,0.1c-0.5,0.1-0.9,0.2-1.2,0.4c-0.3,0.2-0.6,0.4-0.8,0.7c-0.2,0.3-0.3,0.6-0.3,0.9
		c0,0.5,0.1,0.9,0.4,1.2c0.3,0.3,0.7,0.6,1.2,0.9s1,0.5,1.6,0.6s1.2,0.4,1.7,0.6c1,0.4,2,0.8,2.8,1.2c0.8,0.4,1.6,0.9,2.2,1.5
		c0.6,0.6,1.1,1.3,1.4,2c0.3,0.8,0.5,1.7,0.5,2.8c0,1.5-0.3,2.8-1,3.8c-0.7,1.1-1.5,1.9-2.6,2.6c-1.1,0.7-2.3,1.2-3.7,1.5
		c-1.4,0.3-2.9,0.5-4.4,0.5C122.8,162.4,120.2,162,117.8,161.1z"/>
</g>
<path class="st2" d="M131.5,39.5c-0.7-6.1-5.9-9.7-12-10.7c-2.9-0.5-4.7-0.6-6-0.5l-1.6,20.3l6.5,1.1
	C126.8,51.2,132.3,46.9,131.5,39.5z"/>
<path class="st3" d="M133.2,58.5c1.5-0.3,3-0.7,4.3-1.2C136.2,57.8,134.8,58.3,133.2,58.5z"/>
<path class="st3" d="M142.1,54.8c-1.1,0.9-2.3,1.5-3.6,2.1C139.8,56.3,141,55.6,142.1,54.8z"/>
<polygon class="st4" points="108.8,89.4 93.5,86.7 97.8,87.5 "/>
<g>
	<g>
		<g>
			<polygon class="st1" points="146.8,96.1 120.7,117.2 104.8,114.4 130.8,93.3 			"/>
		</g>
		<path class="st1" d="M137.6,57.3c-1.4,0.5-2.8,1-4.3,1.2l0,0.4c0.7,0.4,1.2,1,1.8,1.5l7.1-5.8c0,0-0.1,0-0.1,0.1
			c-1.1,0.9-2.3,1.5-3.6,2.1C138.2,57,137.9,57.2,137.6,57.3z"/>
		<polygon class="st1" points="97.8,87.5 93.5,86.7 67.5,107.8 82.8,110.6 100.7,96 108.8,89.4 		"/>
		<g>
			<polygon class="st1" points="61.4,81 35.4,102.2 17.4,99 43.5,77.9 			"/>
		</g>
	</g>
</g>
<g>
	<g>
		<path class="st5" d="M126.8,75c-0.4-2.5-1-4.6-1.7-6.3c-0.4-0.9-0.8-1.7-1.3-2.5c-1.9-2.9-4.5-4.4-8.1-5l-4.7-0.8l-1.3,17.3
			l-0.1,1.3l-0.8,10.4l-8.1,6.6c0,0.1,0,0.1,0,0.2c1.7,9.5,3.2,16.2,4.1,18.3l26-21.2C130,91.2,128.5,84.5,126.8,75z"/>
		<g>
			<polygon class="st5" points="43.5,77.9 17.4,99 0.3,21.4 26.3,0.2 			"/>
		</g>
		<path class="st5" d="M53.6,63.5l0.2,0c1.9-7,4.4-14.5,7.1-21.8L73.3,8.5L47.4,29.6l2,10.2C51,48,52.3,55.5,53.6,63.5z"/>
		<polygon class="st5" points="84.3,26.6 71.4,57.2 67.5,107.8 93.5,86.7 99.1,14.5 		"/>
		<path class="st5" d="M119.5,28.7c-2.9-0.5-4.7-0.6-6-0.5l-1.6,20.3l6.5,1.1c8.4,1.5,13.9-2.8,13.1-10.2
			C130.9,33.4,125.6,29.8,119.5,28.7z"/>
	</g>
</g>
<path class="st2" d="M131.5,39.5c-0.7-6.1-5.9-9.7-12-10.7c-2.9-0.5-4.7-0.6-6-0.5l-1.6,20.3l6.5,1.1
	C126.8,51.2,132.3,46.9,131.5,39.5z"/>
</svg>
